Inkheart (2008) Bluray 1080P X264 1080p Nl 


Verenigd Koninkrijk / Duitsland / Verenigde Staten
Fantasy
106 minuten

geregisseerd door Iain Softley
met Brendan Fraser, Eliza Bennett en Helen Mirren

Mo Folchart heeft een wonderlijk maar soms verschrikkelijk talent. Als hij hardop voorleest uit boeken, brengt hij de personages tot leven. Wanneer hij op een dag voorleest uit het boek Inkheart, haalt hij een aantal gemene personages uit het boek en in de echte wereld. Alsof dat nog niet erg genoeg is, verdwijnt zijn vrouw in het boek. Zijn dochter Meggie weet niets van haar vaders talent, alleen dat hij tot op de dag van vandaag weigert voor te lezen. Capricorno, één van de boosdoeners uit het boek, heeft jarenlang naar Meggie's vader gezocht om zijn krachtige talent te gebruiken voor zijn eigen duistere doeleinden. Meggie en haar vader zullen er alles aan moeten doen om dat te voorkomen en Meggie's moeder te redden.


English

When Mo Folchart reads a story, the characters leap off the page. Literally. And that’s a problem. Mo must somehow use his special powers to send the interlopers back to their world…and save ours. If ever a task was easier read than done, this is it. Mo and his daughter Meggie, aided by friends real and fictional, plunge into a thrilling quest that pits them against diabolical villains, fantastic beasts and dangers at every turn. Brendan Fraser (The Mummy films, Journey to the Center of the Earth) leads a splendid cast (including Academy Award winners* Helen Mirren and Jim Broadbent) in an all-fun, all-family film of Cornelia Funke’s bestseller. Follow Mo and Meggie into adventure more exciting than any ever read. Because it’s adventure they’re going to live! 



Filmgegevens
-------- Regie: Iain Softley
-------- Acteurs: Brendan Fraser, Eliza Bennett en Helen Mirren
-------- Genre: Fantasy
-------- Audio: Engels AC3 5.1
-------- Subtitels: Nederlands English (instelbaar)
-------- Beeld: 16:9
-------- Speelduur: 106 minuten
-------- Land: Verenigd Koninkrijk / Duitsland / Verenigde Staten
-------- IMDB Beoordeling: 6.3/10 (4,756 votes)
-------- Compressie: x264
-------- Bron: Inkheart.1080p.BluRay.x264-REFiNED
Thanks Just_4_fun_Team

Format                           : Matroska
File size                        : 7.95 GiB
Duration                         : 1h 46mn
Overall bit rate                 : 10.7 Mbps
Encoded date                     : UTC 2009-04-09 16:45:44
Writing application              : mkvmerge v2.6.0 ('Kelly watch the Stars') built on Mar 24 2009 15:23:17
Writing library                  : libebml v0.7.7 + libmatroska v0.8.1

Video
ID                               : 1
Format                           : AVC
Format/Info                      : Advanced Video Codec
Format profile                   : High@L4.1
Format settings, CABAC           : Yes
Format settings, ReFrames        : 5 frames
Format settings, GOP             : N=1
Muxing mode                      : Container profile=Unknown@4.1
Codec ID                         : V_MPEG4/ISO/AVC
Duration                         : 1h 46mn
Bit rate                         : 10.1 Mbps
Width                            : 1 920 pixels
Height                           : 816 pixels
Display aspect ratio             : 2.35:1
Frame rate                       : 23.976 fps
Color space                      : YUV
Chroma subsampling               : 4:2:0
Bit depth                        : 8 bits
Scan type                        : Progressive
Bits/(Pixel*Frame)               : 0.269
Stream size                      : 7.31 GiB (92%)
Writing library                  : x264 core 67 r1137 1fda882
Encoding settings                : cabac=1 / ref=5 / deblock=1:0:0 / analyse=0x3:0x113 / me=umh / subme=7 / psy_rd=1.0:0.3 / mixed_ref=1 / me_range=16 / chroma_me=1 / trellis=1 / 8x8dct=1 / cqm=0 / deadzone=21,11 / chroma_qp_offset=-4 / threads=6 / nr=0 / decimate=1 / mbaff=0 / bframes=3 / b_pyramid=1 / b_adapt=1 / b_bias=0 / direct=3 / wpredb=1 / keyint=250 / keyint_min=25 / scenecut=40 / rc=2pass / bitrate=10087 / ratetol=1.0 / qcomp=0.60 / qpmin=10 / qpmax=51 / qpstep=4 / cplxblur=20.0 / qblur=0.5 / ip_ratio=1.40 / pb_ratio=1.30 / aq=1:1.00
Language                         : English

Audio
ID                               : 2
Format                           : AC-3
Format/Info                      : Audio Coding 3
Mode extension                   : CM (complete main)
Codec ID                         : A_AC3
Duration                         : 1h 46mn
Bit rate mode                    : Constant
Bit rate                         : 640 Kbps
Channel(s)                       : 6 channels
Channel positions                : Front: L C R, Side: L R, LFE
Sampling rate                    : 48.0 KHz
Bit depth                        : 16 bits
Stream size                      : 485 MiB (6%)
Title                            : English AC3 640kbps
Language                         : English

Text #1
ID                               : 3
Format                           : UTF-8
Codec ID                         : S_TEXT/UTF8
Codec ID/Info                    : UTF-8 Plain Text
Title                            : English
Language                         : English

Text #2
ID                               : 4
Format                           : UTF-8
Codec ID                         : S_TEXT/UTF8
Codec ID/Info                    : UTF-8 Plain Text
Title                            : Dutch
Language                         : Dutch




 
http://www.moviemeter.nl/film/41495 
http://www.imdb.com/title/tt1146438

***************************************** 

Brought to you by 
Pioen